<?xml version="1.0" standalone="no"?>
<!DOCTYPE svg PUBLIC "-//W3C//DTD SVG 20010904//EN"
 "http://www.w3.org/TR/2001/REC-SVG-20010904/DTD/svg10.dtd">
<svg version="1.0" xmlns="http://www.w3.org/2000/svg"
 width="500.000000pt" height="500.000000pt" viewBox="0 0 500.000000 500.000000"
 preserveAspectRatio="xMidYMid meet">
<metadata>
Created by potrace 1.14, written by Peter Selinger 2001-2017
</metadata>
<g transform="translate(0.000000,500.000000) scale(0.100000,-0.100000)"
fill="#000000" stroke="none">
<path d="M845 4073 c-66 -86 -135 -174 -153 -197 -46 -58 -43 -54 -102 -131
-81 -106 -154 -199 -160 -205 -3 -3 -15 -19 -26 -35 l-22 -31 92 -57 c73 -47
467 -299 601 -386 17 -10 95 -61 175 -113 168 -109 271 -163 390 -206 82 -29
184 -60 225 -68 11 -2 31 -6 45 -9 71 -15 198 -35 248 -40 31 -3 77 -7 102
-10 25 -3 565 -5 1200 -5 l1155 -1 3 121 3 122 -348 -7 c-191 -4 -409 -9 -483
-10 -74 -1 -270 -6 -435 -10 -755 -19 -846 -15 -974 41 -46 21 -177 106 -191
124 -3 4 -32 30 -65 58 -80 67 -198 183 -325 322 -58 63 -128 139 -157 170
-28 30 -64 69 -80 86 -91 100 -237 258 -295 319 -37 39 -75 80 -86 93 -58 66
-206 222 -211 222 -3 0 -60 -71 -126 -157z"/>
<path d="M2407 2424 c-1 -1 -56 -4 -122 -8 -66 -4 -136 -9 -155 -12 -296 -45
-497 -103 -672 -197 -54 -29 -265 -160 -469 -292 -205 -132 -380 -243 -391
-247 -10 -4 -18 -12 -18 -18 0 -5 -4 -10 -9 -10 -7 0 -149 -84 -181 -107 -5
-4 15 -38 50 -83 38 -49 150 -193 163 -210 7 -8 26 -33 42 -55 16 -22 32 -42
35 -45 4 -3 19 -23 36 -45 16 -22 34 -45 39 -52 13 -17 24 -30 65 -83 19 -25
37 -47 40 -50 4 -3 21 -25 38 -50 17 -25 41 -56 53 -70 l21 -25 61 66 c83 88
246 264 266 288 9 10 66 72 127 137 61 66 132 142 157 169 25 28 60 66 78 86
19 20 81 87 139 150 199 215 317 326 462 432 179 130 210 133 1103 112 165 -4
368 -8 450 -10 83 -1 298 -6 478 -10 l328 -6 -3 122 -3 121 -1103 2 c-607 0
-1104 0 -1105 0z"/>
</g>
</svg>
